<svg xmlns="http://www.w3.org/2000/svg" width="500.71429443359375" height="517.7142944335938" style=""><rect id="backgroundrect" width="100%" height="100%" x="0" y="0" fill="none" stroke="none" style="" class=""/>
 <!-- Created with Method Draw - http://github.com/duopixel/Method-Draw/ -->

 <g style="">
  <title>background</title>
  <rect fill="none" id="canvas_background" height="604" width="551" y="-1" x="-1"/>
  <g display="none" overflow="visible" y="0" x="0" height="100%" width="100%" id="canvasGrid">
   <rect fill="url(#gridpattern)" stroke-width="0" y="1" x="1" height="600" width="800" id="svg_1"/>
  </g>
 </g>
 <g style="" class="currentLayer">
  <title>Layer 1</title>
  <path fill="#000000" fill-opacity="1" stroke="none" stroke-width="14" stroke-dasharray="none" stroke-linejoin="miter" stroke-linecap="butt" stroke-dashoffset="" fill-rule="nonzero" opacity="1" marker-start="" marker-mid="" marker-end="" d="M1.294106216309558,261.99159420922746 C1.294106216309558,122.21259000159529 113.1086225258554,8.991596593413249 251.15123525368978,8.991596593413249 C389.19384798152413,8.991596593413249 501.00836429106994,122.21259000159529 501.00836429106994,261.99159420922746 C501.00836429106994,401.7705984168596 389.19384798152413,514.9915918250417 251.15123525368978,514.9915918250417 C113.1086225258554,514.9915918250417 1.294106216309558,401.7705984168596 1.294106216309558,261.99159420922746 z" id="svg_2" class=""/>
   <path stroke="none" id="svg_4" d="m222.8303637264808,46.7365529682085 c-153.80271003829642,41.80923775166694 12.685017729226864,125.86886750696816 -44.48586804050533,156.0328961206743 c-28.962528853169506,15.276641182721018 -75.97407972991019,13.017153180332992 -57.099343581154955,-63.90587572520756 c-94.21740529063675,75.0190703372672 -66.82064028849774,245.94538739087562 42.47149290097782,302.3323088594609 c-23.97913601930359,-22.20910052355169 -38.96729537344318,-53.6412790588729 -38.96729537344318,-88.45058819534944 c0,-67.14804713852614 55.74905646239022,-121.75470714835052 124.2979503675807,-121.75470714835052 c68.55154561509434,0 124.29795711493414,54.60839369567517 124.29795711493414,121.75470714835052 c0,32.48235185972877 -13.043551849233273,62.030467935826096 -34.27355967561722,83.883165302632 c133.09021747378975,-66.57366050486708 108.53706385486055,-249.54310199772033 19.870011266011858,-296.3055627815505 c21.15935628846146,48.59288905697186 10.202585428573878,85.95061319851673 -16.090292307904516,106.78082805658732 c12.92786847441893,-165.8364011477576 -173.5376122989258,-99.01101908894451 -120.0210526708793,-200.36802472076087 l0,0.0008530835138785906 zm26.21605237015374,200.41821217425883 c-59.630343331904996,0 -107.79259461250763,47.17941223094413 -107.79259461250763,105.59052888531944 s48.164896243153095,105.58880207917441 107.79259461250763,105.58880207917441 c59.63035007925844,0 107.7961437204197,-47.17767854509335 107.7961437204197,-105.58880207917441 c0,-58.409389848230276 -48.16490973785998,-105.58965516268827 -107.7952598171184,-105.58965516268827 l-0.0008839033012936327,-0.0008737226311498469 zm0,46.52370747523633 c41.491237392489744,0 75.3144112256539,33.13112875173918 75.3144112256539,73.77255021055241 s-33.82317383316417,73.74485939488014 -75.31352732235261,73.74485939488014 c-41.48857893523241,0 -75.28526265877156,-33.103444815772676 -75.28526265877156,-73.74485939488014 s33.79668372353913,-73.77081652470162 75.28526265877156,-73.77081652470162 l-0.0008839033012936327,-0.0017336858507855206 zm0,16.165918828587625 c-32.56915795335254,0 -58.7799069036985,25.702133527596633 -58.7799069036985,57.606631381964775 c0,31.902757288811596 26.21074895034598,57.57894744599826 58.7799069036985,57.57894744599826 c32.57091901260168,0 58.81082327718346,-25.674456471335876 58.81082327718346,-57.57894744599826 c0,-31.90276416851736 -26.239020361280485,-57.606631381964775 -58.80993937388216,-57.606631381964775 l-0.0008839033012936327,0 z" fill="#ffffff" stroke-width="1" class="" opacity="1" filter="" fill-opacity="1"/>
  
 <polyline fill="#ffffff" stroke-dashoffset="" fill-rule="nonzero" marker-start="" marker-mid="" marker-end="" id="svg_3" points="188.57144165039062,301.91426277160645 187.85714721679688,301.91426277160645 186.42855834960938,301.91426277160645 183.57144165039062,303.3428211212158 180.71426391601562,306.1999683380127 177.14285278320312,309.05711555480957 172.85714721679688,313.3428211212158 169.28573608398438,318.3428211212158 165.71426391601562,324.7714099884033 164.28573608398438,331.1999683380127 164.28573608398438,338.3428211212158 165.00003051757812,345.48567390441895 167.85714721679688,354.05711555480957 170.71426391601562,360.48567390441895 174.28573608398438,366.91426277160645 177.85714721679688,372.6285572052002 181.42855834960938,378.3428211212158 185.71426391601562,384.05711555480957 190.71426391601562,391.91426277160645 195.71426391601562,397.6285572052002 198.57144165039062,401.91426277160645 202.85714721679688,405.48570442199707 203.57144165039062,406.91426277160645 204.28573608398438,408.3428211212158 205.00003051757812,408.3428211212158 205.71426391601562,409.05711555480957 206.42855834960938,410.48570442199707 207.14285278320312,410.48570442199707 209.28573608398438,411.91426277160645 212.14285278320312,412.6285572052002 215.00003051757812,413.3428211212158 218.57144165039062,414.05711555480957 225.00003051757812,414.05711555480957 231.42855834960938,414.05711555480957 237.14285278320312,414.05711555480957 242.14285278320312,414.05711555480957 246.42855834960938,413.3428211212158 250.00003051757812,412.6285572052002 253.57144165039062,410.48570442199707 255.71426391601562,408.3428211212158 257.8571472167969,405.48570442199707 259.2857360839844,401.91426277160645 261.4285583496094,399.05711555480957 263.5714416503906,395.48570442199707 265.7142639160156,391.1999683380127 267.8571472167969,387.6285572052002 269.2856750488281,384.05711555480957 272.1428527832031,381.1999683380127 275.0000305175781,379.05711555480957 276.4285583496094,377.6285572052002 278.5713806152344,376.1999683380127 279.2856750488281,374.7714099884033 281.4285583496094,374.05711555480957 283.5713806152344,371.1999683380127 285.0000305175781,368.3428211212158 287.1428527832031,364.7714099884033 288.5713806152344,359.05711555480957 289.2856750488281,354.05711555480957 289.2856750488281,349.7714099884033 290.0000305175781,345.48567390441895 290.7142639160156,341.91426277160645 291.4285583496094,338.3428211212158 291.4285583496094,334.05711555480957 291.4285583496094,331.1999683380127 291.4285583496094,327.6285572052002 291.4285583496094,326.1999683380127 291.4285583496094,324.7714099884033 290.7142639160156,324.05711555480957 290.0000305175781,321.1999683380127 287.8570861816406,319.05711555480957 286.4285583496094,315.48567390441895 284.2856750488281,311.91426277160645 281.4285583496094,309.7714099884033 277.8570861816406,306.1999683380127 273.5713806152344,303.3428211212158 269.2856750488281,299.7714099884033 265.7142639160156,297.6285572052002 262.1428527832031,294.7714099884033 259.2857360839844,292.6285572052002 255.71426391601562,290.48567390441895 252.14285278320312,288.3428211212158 248.57144165039062,286.91426277160645 245.71426391601562,285.48567390441895 242.14285278320312,284.7714099884033 239.28573608398438,284.7714099884033 236.42855834960938,284.7714099884033 232.85714721679688,284.7714099884033 229.28573608398438,284.7714099884033 224.28573608398438,286.91426277160645 216.42855834960938,290.48567390441895 209.28573608398438,294.05711555480957 202.14285278320312,298.3428211212158 195.71426391601562,302.6285572052002 190.71426391601562,307.6285572052002 187.14285278320312,311.91426277160645 182.14285278320312,316.91426277160645 178.57144165039062,322.6285572052002 175.00003051757812,327.6285572052002 172.85714721679688,334.05711555480957 171.42855834960938,338.3428211212158 170.71426391601562,341.91426277160645 170.00003051757812,348.3428211212158 169.28573608398438,351.91426277160645 169.28573608398438,364.7714099884033 169.28573608398438,365.48567390441895 169.28573608398438,368.3428211212158 169.28573608398438,370.48567390441895 169.28573608398438,374.05711555480957 169.28573608398438,376.91426277160645 169.28573608398438,379.7714099884033 169.28573608398438,381.91426277160645 169.28573608398438,384.05711555480957 169.28573608398438,387.6285572052002 169.28573608398438,389.7714099884033 169.28573608398438,392.6285572052002 170.00003051757812,394.7714099884033 171.42855834960938,397.6285572052002 172.14285278320312,398.3428211212158 172.85714721679688,400.48570442199707 174.28573608398438,401.91426277160645 175.00003051757812,404.05711555480957 177.14285278320312,406.91426277160645 178.57144165039062,409.7714099884033 180.71426391601562,412.6285572052002 182.14285278320312,414.05711555480957 184.28573608398438,416.1999683380127 185.71426391601562,417.6285572052002 187.14285278320312,419.05711555480957 188.57144165039062,421.1999683380127 190.71426391601562,421.91426277160645 192.14285278320312,423.3428211212158 194.28573608398438,424.7714099884033 195.71426391601562,426.1999683380127 197.85714721679688,426.91426277160645 200.00003051757812,428.3428211212158 202.14285278320312,429.7714099884033 204.28573608398438,429.7714099884033 207.14285278320312,431.1999683380127 210.00003051757812,431.91426277160645 211.42855834960938,432.6285572052002 214.28573608398438,433.3428211212158 217.14285278320312,434.05711555480957 219.28573608398438,434.05711555480957 222.85714721679688,434.7714099884033 225.00003051757812,436.1999683380127 227.85714721679688,436.1999683380127 230.00003051757812,436.91426277160645 231.42855834960938,437.6285572052002 233.57144165039062,437.6285572052002 235.00003051757812,439.05711555480957 237.14285278320312,439.05711555480957 238.57144165039062,439.7714099884033 240.71426391601562,440.48570442199707 242.14285278320312,440.48570442199707 244.28573608398438,440.48570442199707 247.85714721679688,441.1999683380127 250.71426391601562,441.91426277160645 252.85714721679688,441.91426277160645 255.71426391601562,441.91426277160645 257.1428527832031,442.6285572052002 257.8571472167969,442.6285572052002 258.5714416503906,442.6285572052002 260.0000305175781,442.6285572052002 260.7142639160156,442.6285572052002 262.8571472167969,442.6285572052002 265.0000305175781,442.6285572052002 267.8571472167969,442.6285572052002 272.1428527832031,442.6285572052002 275.0000305175781,442.6285572052002 277.8570861816406,441.91426277160645 280.7142639160156,441.1999683380127 284.2856750488281,439.7714099884033 287.1428527832031,438.3428211212158 290.0000305175781,436.91426277160645 293.5713806152344,434.7714099884033 296.4285583496094,433.3428211212158 300.0000305175781,431.91426277160645 302.1428527832031,430.48570442199707 304.2856750488281,429.05711555480957 305.7142639160156,427.6285572052002 307.1428527832031,425.48570442199707 308.5713806152344,424.05711555480957 309.2856750488281,422.6285572052002 310.7142639160156,421.1999683380127 312.1428527832031,419.7714099884033 312.8570861816406,417.6285572052002 314.2856750488281,416.1999683380127 315.0000305175781,414.05711555480957 316.4285583496094,411.91426277160645 317.1428527832031,411.1999683380127 317.8570861816406,409.7714099884033 318.5713806152344,408.3428211212158 319.2856750488281,406.91426277160645 320.0000305175781,405.48570442199707 320.7142639160156,404.05711555480957 321.4285583496094,401.91426277160645 322.8570861816406,399.7714099884033 323.5713806152344,396.91426277160645 325.0000305175781,394.05711555480957 325.7142639160156,392.6285572052002 326.4285583496094,389.7714099884033 327.1428527832031,386.91426277160645 327.8570861816406,383.3428211212158 328.5713806152344,379.7714099884033 328.5713806152344,375.48567390441895 330.0000305175781,371.1999683380127 330.7142639160156,366.1999683380127 331.4285583496094,361.91426277160645 331.4285583496094,358.3428211212158 331.4285583496094,352.6285572052002 331.4285583496094,347.6285572052002 331.4285583496094,342.6285572052002 330.7142639160156,336.91426277160645 328.5713806152344,331.91426277160645 327.1428527832031,327.6285572052002 324.2856750488281,324.05711555480957 322.8570861816406,320.48567390441895 320.0000305175781,316.91426277160645 317.8570861816406,313.3428211212158 314.2856750488281,310.48567390441895 310.7142639160156,306.1999683380127 305.7142639160156,302.6285572052002 302.8570861816406,300.48567390441895 299.2856750488281,299.05711555480957 295.7142639160156,296.91426277160645 292.1428527832031,295.48567390441895 287.1428527832031,294.05711555480957 281.4285583496094,291.91426277160645 275.7142639160156,290.48567390441895 270.7142639160156,289.05711555480957 265.0000305175781,288.3428211212158 260.7142639160156,287.6285572052002 255.00003051757812,286.91426277160645 250.00003051757812,286.91426277160645 245.71426391601562,287.6285572052002 241.42855834960938,289.7714099884033 236.42855834960938,292.6285572052002 230.71426391601562,296.1999683380127 225.00003051757812,301.91426277160645 219.28573608398438,310.48567390441895 213.57144165039062,318.3428211212158 209.28573608398438,326.91426277160645 205.00003051757812,337.6285572052002 202.85714721679688,346.1999683380127 200.71426391601562,358.3428211212158 200.00003051757812,369.7714099884033 200.00003051757812,377.6285572052002 200.00003051757812,384.7714099884033 200.00003051757812,391.1999683380127 200.00003051757812,395.48570442199707 200.00003051757812,399.7714099884033 200.00003051757812,404.7714099884033 200.00003051757812,407.6285572052002 200.00003051757812,410.48570442199707 200.00003051757812,411.91426277160645 200.00003051757812,413.3428211212158 200.00003051757812,414.7714099884033 200.00003051757812,416.91426277160645 200.00003051757812,417.6285572052002 200.00003051757812,419.05711555480957 200.00003051757812,420.48570442199707 200.00003051757812,421.91426277160645 200.00003051757812,423.3428211212158 200.00003051757812,424.7714099884033 200.00003051757812,426.1999683380127 201.42855834960938,428.3428211212158 203.57144165039062,429.7714099884033 205.71426391601562,431.91426277160645 207.85714721679688,433.3428211212158 210.00003051757812,434.7714099884033 212.14285278320312,436.1999683380127 215.00003051757812,437.6285572052002 217.85714721679688,438.3428211212158 220.00003051757812,439.7714099884033 222.14285278320312,440.48570442199707 223.57144165039062,440.48570442199707 225.00003051757812,441.1999683380127 227.14285278320312,441.91426277160645 229.28573608398438,441.91426277160645 230.00003051757812,441.91426277160645 231.42855834960938,441.91426277160645 232.85714721679688,442.6285572052002 235.00003051757812,442.6285572052002 237.14285278320312,442.6285572052002 238.57144165039062,442.6285572052002 240.71426391601562,442.6285572052002 243.57144165039062,442.6285572052002 246.42855834960938,442.6285572052002 249.28573608398438,442.6285572052002 252.14285278320312,442.6285572052002 254.28573608398438,441.91426277160645 255.71426391601562,441.1999683380127 256.4285583496094,441.1999683380127 257.8571472167969,439.7714099884033 258.5714416503906,438.3428211212158 260.7142639160156,436.1999683380127 262.8571472167969,434.05711555480957 264.2857360839844,431.1999683380127 266.4285583496094,429.05711555480957 267.8571472167969,425.48570442199707 269.2856750488281,422.6285572052002 270.0000305175781,416.91426277160645 271.4285583496094,409.7714099884033 271.4285583496094,404.7714099884033 " style="color: rgb(0, 0, 0);" class="selected" fill-opacity="1"/></g>
</svg>