<?xml version="1.0" encoding="iso-8859-1"?>
<!-- Generator: Adobe Illustrator 19.0.0, SVG Export Plug-In . SVG Version: 6.00 Build 0)  -->
<svg version="1.1" id="Capa_1" xmlns="http://www.w3.org/2000/svg" xmlns:xlink="http://www.w3.org/1999/xlink" x="0px" y="0px"
	 viewBox="0 0 60 60" style="enable-background:new 0 0 60 60;" xml:space="preserve" fill="#000">
<g>
	<path d="M59,9V6h1V0H0v6h1v3h1v42.003L0,51v6h1v3h58v-3h1v-6h-2V9H59z M9,7.438l3-1.714v46.123l-1.903-0.272L7,51.132V8.58L9,7.438
		z M14,52V5h2v1v1v2v4v34v4v1H14z M42,9v2H18V9H42z M38.414,22L36,24.414V26c0,0.553-0.447,1-1,1s-1-0.447-1-1v-1.586L31.586,22H30
		c-0.553,0-1-0.447-1-1s0.447-1,1-1h1.586L34,17.586V16c0-0.553,0.447-1,1-1s1,0.447,1,1v1.586L38.414,20H40c0.553,0,1,0.447,1,1
		s-0.447,1-1,1H38.414z M39,42.25c0,0.552-0.448,1-1,1s-1-0.448-1-1s0.448-1,1-1S39,41.698,39,42.25z M33.5,32.25
		c0,0.552-0.448,1-1,1s-1-0.448-1-1s0.448-1,1-1C33.052,31.25,33.5,31.698,33.5,32.25z M22.312,21c0-0.552,0.448-1,1-1s1,0.448,1,1
		s-0.448,1-1,1S22.312,21.552,22.312,21z M23.312,36.625c0,0.552-0.448,1-1,1s-1-0.448-1-1s0.448-1,1-1
		C22.865,35.625,23.312,36.073,23.312,36.625z M42,49v2H18v-2H42z M44,52v-1v-4V13V9V7V6V5h2v47H44z M53,8.58v42.553l-5,0.714V5.724
		L53,8.58z"/>
</g>
<g>
</g>
<g>
</g>
<g>
</g>
<g>
</g>
<g>
</g>
<g>
</g>
<g>
</g>
<g>
</g>
<g>
</g>
<g>
</g>
<g>
</g>
<g>
</g>
<g>
</g>
<g>
</g>
<g>
</g>
</svg>
